<?xml version="1.0" encoding="iso-8859-1"?>
<!-- Generator: Adobe Illustrator 19.0.0, SVG Export Plug-In . SVG Version: 6.00 Build 0)  -->
<svg version="1.1" id="Layer_1" xmlns="http://www.w3.org/2000/svg" xmlns:xlink="http://www.w3.org/1999/xlink" x="0px" y="0px"
	 viewBox="0 0 392.533 392.533" style="enable-background:new 0 0 392.533 392.533;" xml:space="preserve">
<path style="fill:#56ACE0;" d="M193.552,242.489l-9.18-19.523c-1.939-4.202-1.099-9.115,2.133-12.347
	c0,0,25.277-25.794,25.988-25.406c-1.939-1.164-3.943-2.263-6.077-3.103c-12.347-5.042-25.406-8.857-38.723-11.442l-29.931,54.562
	c-4.202,7.564-14.998,7.564-19.071,0L88.76,170.667c-13.317,2.521-26.376,6.4-38.723,11.442
	c-17.131,6.982-28.186,23.337-28.186,41.697v31.677h145.713c1.228-1.681,2.909-3.038,5.042-3.814l20.299-7.37
	C193.034,243.782,193.293,243.071,193.552,242.489z"/>
<path style="fill:#FFC10D;" d="M352.84,263.176c-3.168-1.164-5.56-3.62-6.659-6.788c-1.034-3.038-2.327-6.077-3.814-9.051
	c-1.487-3.038-1.552-6.465-0.129-9.503l8.016-17.261l-13.123-13.123l-17.261,8.016c-3.038,1.422-6.465,1.422-9.503-0.065
	c-3.038-1.487-6.077-2.78-9.115-3.814c-3.168-1.099-5.624-3.491-6.788-6.659L288,187.087h-18.554l-6.465,17.842
	c-1.164,3.103-3.62,5.56-6.788,6.659c-3.038,1.034-6.012,2.263-9.051,3.814c-3.038,1.487-6.465,1.552-9.503,0.129l-17.261-8.016
	l-13.123,13.123l8.016,17.261c1.422,3.038,1.422,6.465-0.129,9.503c-1.551,3.038-2.78,6.077-3.814,9.05
	c-1.099,3.168-3.491,5.624-6.659,6.788l-17.842,6.465v18.554l17.842,6.465c3.168,1.164,5.56,3.62,6.659,6.788
	c1.034,3.038,2.263,6.012,3.814,9.051c1.487,3.038,1.552,6.465,0.129,9.503l-8.016,17.261l13.123,13.123l17.261-8.016
	c3.038-1.422,6.465-1.422,9.503,0.129c3.038,1.552,6.077,2.78,9.051,3.814c3.168,1.099,5.624,3.491,6.788,6.659l6.465,17.842H288
	l6.465-17.842c1.164-3.103,3.62-5.56,6.788-6.659c3.038-1.034,6.012-2.263,9.051-3.814c2.909-1.487,6.465-1.552,9.503-0.065
	l17.261,8.016l13.123-13.123L342.238,320c-1.422-3.038-1.422-6.465,0.129-9.503c1.487-3.038,2.78-6.012,3.814-9.051
	c1.099-3.168,3.491-5.624,6.659-6.788l17.842-6.465V269.64L352.84,263.176z"/>
<path style="fill:#194F82;" d="M385.293,251.733l-20.299-7.37c-0.259-0.646-0.517-1.293-0.776-1.939l9.18-19.523
	c1.939-4.202,1.099-9.115-2.133-12.347l-23.984-23.984c-3.232-3.232-8.21-4.073-12.347-2.133l-19.523,9.115
	c-0.646-0.323-1.293-0.517-1.939-0.776l-7.37-20.299c-1.552-4.331-5.624-7.176-10.279-7.176h-33.875
	c-4.59,0-8.663,2.844-10.279,7.176l-5.624,15.58c-7.176-11.507-17.778-20.622-30.513-25.859
	c-16.549-6.788-34.004-11.636-51.976-14.481l0,0c-4.59-0.711-9.051,1.487-11.184,5.56l-24.113,43.96l-24.113-43.96
	c-2.263-4.008-6.723-6.271-11.184-5.56c-17.648,2.715-34.78,7.499-51.071,14.093C16.485,172.154,0,196.525,0,223.806v42.602
	c0,6.012,4.848,10.925,10.925,10.925h154.44v18.489c0,4.59,2.844,8.663,7.176,10.279l20.299,7.37
	c0.259,0.646,0.517,1.293,0.776,1.939l-9.18,19.523c-1.939,4.202-1.099,9.115,2.133,12.347l23.984,23.984
	c3.232,3.232,8.21,4.073,12.347,2.133l19.523-9.115c0.646,0.323,1.293,0.517,1.939,0.776l7.37,20.299
	c1.552,4.331,5.624,7.176,10.279,7.176h33.875c4.59,0,8.663-2.844,10.279-7.176l7.37-20.299c0.646-0.259,1.293-0.517,1.939-0.776
	l19.523,9.115c4.202,1.939,9.115,1.099,12.347-2.133l23.984-23.984c3.232-3.232,4.073-8.21,2.133-12.347l-9.18-19.523
	c0.323-0.646,0.517-1.293,0.776-1.939l20.299-7.37c4.331-1.552,7.176-5.624,7.176-10.279v-33.875
	C392.469,257.358,389.624,253.285,385.293,251.733z M370.683,288.194l-17.842,6.465c-3.103,1.164-5.56,3.62-6.659,6.788
	c-1.034,3.038-2.327,6.077-3.814,9.051c-1.487,3.038-1.552,6.465-0.129,9.503l8.016,17.261l-13.123,13.188L320,342.303
	c-3.038-1.422-6.465-1.422-9.503,0.065c-3.038,1.552-6.077,2.78-9.051,3.814c-3.168,1.099-5.624,3.491-6.788,6.659l-6.465,17.842
	H269.64l-6.465-17.842c-1.164-3.103-3.62-5.56-6.788-6.659c-3.038-1.034-6.012-2.263-9.051-3.814
	c-3.038-1.487-6.465-1.552-9.503-0.129l-17.261,8.016l-13.123-13.123l8.016-17.261c1.422-3.038,1.422-6.465-0.129-9.503
	c-1.487-3.038-2.78-6.077-3.814-9.051c-1.099-3.168-3.491-5.624-6.659-6.788l-17.842-6.465v-18.554l17.842-6.465
	c3.168-1.164,5.56-3.62,6.659-6.788c1.034-3.038,2.263-6.012,3.814-9.051c1.487-3.038,1.552-6.465,0.129-9.503l-8.016-17.261
	l13.123-13.123l17.261,8.016c3.038,1.422,6.465,1.422,9.503-0.129c3.038-1.487,6.077-2.78,9.051-3.814
	c3.168-1.099,5.624-3.491,6.788-6.659l6.465-17.842h18.554l6.465,17.842c1.164,3.103,3.62,5.56,6.788,6.659
	c3.038,1.034,6.012,2.263,9.115,3.814c2.909,1.487,6.465,1.552,9.503,0.065l17.261-8.016l13.123,13.123l-8.21,17.455
	c-1.422,3.038-1.422,6.465,0.129,9.503c1.487,3.038,2.78,6.012,3.814,9.05c1.099,3.168,3.491,5.624,6.659,6.788l17.842,6.465
	L370.683,288.194L370.683,288.194z M167.434,255.547H21.721v-31.677c0-18.36,11.055-34.78,28.186-41.697
	c12.347-5.042,25.406-8.857,38.723-11.442l29.931,54.562c4.202,7.564,14.998,7.564,19.071,0l29.931-54.562
	c13.382,2.521,26.376,6.4,38.723,11.442c2.133,0.84,4.202,1.939,6.077,3.103c-0.711-0.388-25.988,25.406-25.988,25.406
	c-3.232,3.232-4.073,8.21-2.133,12.347l9.18,19.523c-0.323,0.646-0.517,1.293-0.776,1.939l-20.299,7.37
	C170.408,252.509,168.663,253.867,167.434,255.547z"/>
<path style="fill:#FFFFFF;" d="M128.194,21.786c-23.014,0-41.697,18.683-41.697,41.697s18.683,41.697,41.697,41.697
	s41.697-18.683,41.697-41.697S151.143,21.786,128.194,21.786z"/>
<path style="fill:#194F82;" d="M128.194,0C93.22,0,64.647,28.509,64.647,63.547s28.509,63.547,63.547,63.547
	s63.547-28.509,63.547-63.547S163.232,0,128.194,0z M128.194,105.18c-23.014,0-41.697-18.683-41.697-41.697
	s18.683-41.697,41.697-41.697s41.697,18.683,41.697,41.697S151.143,105.18,128.194,105.18z"/>
<path style="fill:#FFFFFF;" d="M309.01,278.95c0-16.614-13.511-30.125-30.125-30.125c-16.614,0-30.125,13.511-30.125,30.125
	c0,16.614,13.511,30.125,30.125,30.125C295.499,309.075,309.01,295.564,309.01,278.95z"/>
<path style="fill:#194F82;" d="M278.885,227.038c-28.638,0-51.911,23.337-51.911,51.911c0,28.574,23.337,51.911,51.911,51.911
	c28.638,0,51.911-23.337,51.911-51.911C330.796,250.376,307.459,227.038,278.885,227.038z M248.76,278.95
	c0-16.614,13.511-30.125,30.125-30.125c16.614,0,30.125,13.511,30.125,30.125c0,16.614-13.511,30.125-30.125,30.125
	C262.271,309.075,248.76,295.564,248.76,278.95z"/>
<g>
</g>
<g>
</g>
<g>
</g>
<g>
</g>
<g>
</g>
<g>
</g>
<g>
</g>
<g>
</g>
<g>
</g>
<g>
</g>
<g>
</g>
<g>
</g>
<g>
</g>
<g>
</g>
<g>
</g>
</svg>
