<?xml version="1.0" ?><svg width="32px" height="32px" viewBox="0 0 32 32" xmlns="http://www.w3.org/2000/svg"><defs><style>.cls-1{fill:#77acf1;}.cls-2{fill:#04009a;}</style></defs><g data-name="27. Drone" id="_27._Drone"><path class="cls-1" d="M14,19h4a0,0,0,0,1,0,0v3a1,1,0,0,1-1,1H15a1,1,0,0,1-1-1V19A0,0,0,0,1,14,19Z"/><path class="cls-2" d="M20,32H12a3,3,0,0,1-3-3V21a3,3,0,0,1,3-3h8a3,3,0,0,1,3,3v8A3,3,0,0,1,20,32ZM12,20a1,1,0,0,0-1,1v8a1,1,0,0,0,1,1h8a1,1,0,0,0,1-1V21a1,1,0,0,0-1-1Z"/><path class="cls-2" d="M29.54,5.6,29,5.47V2h2a1,1,0,0,0,0-2H25a1,1,0,0,0,0,2h2V5l-3.22-.81a.88.88,0,0,1-.46-.26l-2-2A3,3,0,0,0,19.17,1H12.83a3,3,0,0,0-2.12.88l-2,2a1.06,1.06,0,0,1-.47.27L5,5V2H7A1,1,0,0,0,7,0H1A1,1,0,0,0,1,2H3V5.47l-.54.13A3.24,3.24,0,0,0,3,12V23a3,3,0,0,0,3,3,1,1,0,0,0,0-2,1,1,0,0,1-1-1V12H8.93a1,1,0,0,1,.83.45l.81,1.21A3,3,0,0,0,13.07,15H15a1,1,0,0,0,2,0h1.93a3,3,0,0,0,2.5-1.34l.81-1.21a1,1,0,0,1,.83-.45H27V23a1,1,0,0,1-1,1,1,1,0,0,0,0,2,3,3,0,0,0,3-3V12a3.24,3.24,0,0,0,.54-6.38ZM28.75,10H23.07a3,3,0,0,0-2.5,1.34l-.81,1.21a1,1,0,0,1-.83.45H13.07a1,1,0,0,1-.83-.45l-.81-1.21A3,3,0,0,0,8.93,10H3.25a1.25,1.25,0,0,1-.31-2.46L8.7,6.11a3.15,3.15,0,0,0,1.4-.79l2-2A1,1,0,0,1,12.83,3h6.34a1,1,0,0,1,.71.29l2,2a3,3,0,0,0,1.4.78l5.76,1.44A1.25,1.25,0,0,1,28.75,10Z"/><path class="cls-2" d="M16,5a3,3,0,1,0,3,3A3,3,0,0,0,16,5Zm0,4a1,1,0,1,1,1-1A1,1,0,0,1,16,9Z"/></g></svg>