<?xml version="1.0" encoding="iso-8859-1"?>
<!-- Generator: Adobe Illustrator 19.0.0, SVG Export Plug-In . SVG Version: 6.00 Build 0)  -->
<svg version="1.1" id="Layer_1" xmlns="http://www.w3.org/2000/svg" xmlns:xlink="http://www.w3.org/1999/xlink" x="0px" y="0px"
	 viewBox="0 0 512 512" style="enable-background:new 0 0 512 512;" xml:space="preserve">
<g>
	<rect x="104.28" y="235.87" style="fill:#CFF09E;" width="100.938" height="261.595"/>
	<rect x="306.781" y="235.87" style="fill:#CFF09E;" width="100.938" height="261.595"/>
</g>
<path style="fill:#507C5C;" d="M458.505,203.874c-8.026,0-14.534,6.507-14.534,14.534v118.694h-21.716V235.867
	c0-8.027-6.508-14.534-14.534-14.534h-35.935v-53.781h5.069c33.989,0,61.64-27.651,61.64-61.64V61.64
	c0-8.027-6.508-14.534-14.534-14.534c-8.026,0-14.534,6.507-14.534,14.534v44.273c0,17.907-14.527,32.48-32.413,32.567
	c-0.054,0-0.106-0.009-0.158-0.009h-39.683c-17.741-0.256-32.097-14.759-32.097-32.559V61.64c0-17.959,14.612-32.572,32.572-32.572
	h39.209c8.026,0,14.534-6.507,14.534-14.534S384.883,0,376.857,0h-39.209c-33.989,0-61.64,27.651-61.64,61.64v44.273
	c0,14.79,5.239,28.377,13.955,39.01c-28.491,12.236-48.498,40.564-48.498,73.485v118.694h-21.716V235.867
	c0-8.027-6.507-14.534-14.534-14.534H169.28v-53.781h5.071c33.987,0,61.64-27.651,61.64-61.64V61.64
	c0-8.027-6.507-14.534-14.534-14.534s-14.534,6.507-14.534,14.534v44.273c0,17.907-14.525,32.48-32.412,32.567
	c-0.054,0-0.106-0.009-0.158-0.009h-39.685c-17.741-0.256-32.097-14.759-32.097-32.559V61.64c0-17.961,14.611-32.572,32.572-32.572
	h39.209c8.027,0,14.534-6.507,14.534-14.534S182.38,0,174.352,0h-39.209c-33.989,0-61.64,27.651-61.64,61.64v44.273
	c0,14.79,5.239,28.377,13.955,39.01c-28.491,12.236-48.498,40.564-48.498,73.485v133.227c0,8.027,6.507,14.534,14.534,14.534h36.25
	v131.297c0,8.027,6.507,14.534,14.534,14.534h100.938c8.027,0,14.534-6.507,14.534-14.534V366.169h36.25h36.249v131.297
	c0,8.027,6.508,14.534,14.534,14.534h100.938c8.026,0,14.534-6.507,14.534-14.534V366.169h36.25c8.026,0,14.534-6.507,14.534-14.534
	V218.408C473.039,210.38,466.532,203.874,458.505,203.874z M68.029,337.101V218.407c0-28.049,22.82-50.868,50.868-50.868h15.771
	c0.16,0.001,0.317,0.012,0.475,0.012h5.071v53.781h-35.935c-8.027,0-14.534,6.507-14.534,14.534V337.1H68.029V337.101z
	 M190.681,482.932h-71.87V250.401h21.401v69.549c0,8.027,6.507,14.534,14.534,14.534s14.534-6.507,14.534-14.534v-69.549h21.401
	V482.932z M270.533,337.101V218.407c0-28.049,22.82-50.868,50.868-50.868h15.771c0.158,0.001,0.317,0.012,0.475,0.012h5.071v53.781
	h-35.936c-8.026,0-14.534,6.507-14.534,14.534V337.1h-21.715V337.101z M393.187,482.932h-71.87V250.401h21.403v69.549
	c0,8.027,6.508,14.534,14.534,14.534c8.026,0,14.534-6.507,14.534-14.534v-69.549h21.401v232.531H393.187z"/>
<g>
</g>
<g>
</g>
<g>
</g>
<g>
</g>
<g>
</g>
<g>
</g>
<g>
</g>
<g>
</g>
<g>
</g>
<g>
</g>
<g>
</g>
<g>
</g>
<g>
</g>
<g>
</g>
<g>
</g>
</svg>
