<?xml version="1.0" encoding="UTF-8" standalone="no"?> <svg id="Layer_1" data-name="Layer 1" xmlns="http://www.w3.org/2000/svg" viewBox="0 0 128 128"><defs><style>.cls-1{fill:#2e79bd;}.cls-2{fill:#2d3e50;}</style></defs><title>b</title><path class="cls-1" d="M66.06506,45.21371c-1.30555-.09205-1.05557-1.337-.79683-2.31531l2.18766-8.2717a3.71,3.71,0,0,0-7.16848-1.91557c-.31941,1.18289-2.87548,11.73194-2.89122,11.798-.35746,1.49874-.785,3.41434-.12595,4.89163.99978,2.24084,4.03621,1.59,5.881,1.05659a14.70565,14.70565,0,0,0,3.60614-1.57516A33.08517,33.08517,0,0,0,70.42974,45.976l-.24483-2.46043A7.20407,7.20407,0,0,1,66.06506,45.21371Z"/><path class="cls-1" d="M66.946,16.38279a5.54967,5.54967,0,0,0-5.59192,5.13244,4.22812,4.22812,0,0,0,.62391,2.38455c1.70725,2.76242,5.62946,2.16083,7.7499.25421C72.52659,21.63751,70.65219,16.61511,66.946,16.38279Z"/><path class="cls-1" d="M64.00022,2.82615a30.84871,30.84871,0,1,0,30.8485,30.8485A30.88352,30.88352,0,0,0,64.00022,2.82615Zm0,55.07085A24.22214,24.22214,0,1,1,88.22214,33.67465,24.2498,24.2498,0,0,1,64.00022,57.897Z"/><path class="cls-2" d="M112.349,87.36254c-10.92384-5.44557-34.89811-13.493-34.89811-13.493H75.42268l-6.56,8.75213,6.15031,42.55213h45.82186s-.33188-18.42629-2.20441-29.35012A11.66738,11.66738,0,0,0,112.349,87.36254Z"/><path class="cls-2" d="M50.54909,73.86959S26.57482,81.917,15.651,87.36254a11.66738,11.66738,0,0,0-6.28138,8.46118c-1.87248,10.92384-2.20441,29.35012-2.20441,29.35012h45.8219l6.15031-42.55213-6.56-8.75213Z"/></svg>