<?xml version="1.0" encoding="iso-8859-1"?>
<!-- Generator: Adobe Illustrator 19.0.0, SVG Export Plug-In . SVG Version: 6.00 Build 0)  -->
<svg version="1.1" id="Layer_1" xmlns="http://www.w3.org/2000/svg" xmlns:xlink="http://www.w3.org/1999/xlink" x="0px" y="0px"
	 viewBox="0 0 511.999 511.999" style="enable-background:new 0 0 511.999 511.999;" xml:space="preserve">
<path style="fill:#D9DCDF;" d="M511.999,196.142c0-2.508-1.174-4.872-3.171-6.388L271.181,9.472c-8.938-6.781-21.425-6.781-30.363,0
	L3.172,189.755C1.174,191.271,0,193.635,0,196.143v24.584h511.999V196.142z"/>
<polygon style="fill:#B3B9BF;" points="486.88,392.818 486.88,173.105 370.712,84.977 141.287,84.977 25.119,173.105 
	25.119,392.818 "/>
<path style="fill:#C4DF64;" d="M469.778,94.063H42.222c-4.427,0-8.017,3.588-8.017,8.017v273.636c0,4.428,3.589,8.017,8.017,8.017
	h427.557c4.427,0,8.017-3.588,8.017-8.017V102.079C477.795,97.652,474.205,94.063,469.778,94.063z"/>
<path style="fill:#AFCA62;" d="M435.574,171.023c-19.155,0-34.739-15.583-34.739-34.739c0-4.428-3.589-8.017-8.017-8.017H119.182
	c-4.427,0-8.017,3.588-8.017,8.017c0,19.156-15.584,34.739-34.739,34.739c-4.427,0-8.017,3.588-8.017,8.017v119.716
	c0,4.428,3.589,8.017,8.017,8.017c19.155,0,34.739,15.583,34.739,34.739c0,4.428,3.589,8.017,8.017,8.017h273.636
	c4.427,0,8.017-3.588,8.017-8.017c0-19.156,15.584-34.739,34.739-34.739c4.427,0,8.017-3.588,8.017-8.017V179.039
	C443.59,174.612,440.001,171.023,435.574,171.023z"/>
<circle style="fill:#FFC44F;" cx="255.999" cy="238.897" r="76.96"/>
<path style="fill:#F7B14D;" d="M256,323.874c-46.856,0-84.977-38.12-84.977-84.977s38.121-84.977,84.977-84.977
	s84.977,38.12,84.977,84.977S302.856,323.874,256,323.874z M256,169.954c-38.015,0-68.943,30.928-68.943,68.943
	s30.928,68.943,68.943,68.943s68.943-30.928,68.943-68.943S294.015,169.954,256,169.954z"/>
<path style="fill:#C6803F;" d="M256,230.881c-5.01,0-9.086-4.076-9.086-9.086s4.076-9.086,9.086-9.086h17.102
	c4.427,0,8.017-3.588,8.017-8.017s-3.589-8.017-8.017-8.017h-9.086v-9.086c0-4.428-3.589-8.017-8.017-8.017
	c-4.427,0-8.017,3.588-8.017,8.017v10.405c-9.93,3.354-17.102,12.752-17.102,23.8c0,13.851,11.268,25.119,25.119,25.119
	c5.01,0,9.086,4.076,9.086,9.086c0,5.01-4.076,9.086-9.086,9.086h-17.102c-4.427,0-8.017,3.588-8.017,8.017
	c0,4.428,3.589,8.017,8.017,8.017h9.086v9.086c0,4.428,3.589,8.017,8.017,8.017c4.427,0,8.017-3.588,8.017-8.017V279.8
	c9.93-3.354,17.102-12.752,17.102-23.8C281.119,242.149,269.851,230.881,256,230.881z"/>
<path style="fill:#D9DCDF;" d="M507.88,189.137c-2.543-1.415-5.653-1.341-8.125,0.195L3.79,497.173
	c-3.043,1.889-4.464,5.566-3.481,9.01c0.981,3.443,4.128,5.817,7.709,5.817h495.966c4.427,0,8.017-3.588,8.017-8.017V196.142
	C511.999,193.232,510.423,190.551,507.88,189.137z"/>
<path style="fill:#F6F6F7;" d="M508.21,497.171L12.245,189.331C6.996,186.071,0,189.985,0,196.142v307.841
	c0,4.428,3.589,8.017,8.017,8.017h495.966c3.486,0,6.646-2.34,7.665-5.673C512.698,502.889,511.266,499.069,508.21,497.171z"/>
<path style="fill:#ECEDEF;" d="M511.999,196.142c0-6.157-6.996-10.071-12.244-6.811L268.559,332.832l243.44,151.101V196.142z"/>
<g>
	<path style="fill:#FFC44F;" d="M375.716,17.102h-9.086V8.017c0-4.428-3.589-8.017-8.017-8.017s-8.017,3.588-8.017,8.017v9.086
		h-9.086c-4.427,0-8.017,3.588-8.017,8.017s3.589,8.017,8.017,8.017h9.086v9.086c0,4.428,3.589,8.017,8.017,8.017
		s8.017-3.588,8.017-8.017v-9.086h9.086c4.427,0,8.017-3.588,8.017-8.017S380.143,17.102,375.716,17.102z"/>
	<path style="fill:#FFC44F;" d="M102.079,42.756h-9.086V33.67c0-4.428-3.589-8.017-8.017-8.017s-8.017,3.588-8.017,8.017v9.086
		h-9.086c-4.427,0-8.017,3.588-8.017,8.017s3.589,8.017,8.017,8.017h9.086v9.086c0,4.428,3.589,8.017,8.017,8.017
		s8.017-3.588,8.017-8.017v-9.086h9.086c4.427,0,8.017-3.588,8.017-8.017S106.507,42.756,102.079,42.756z"/>
	<path style="fill:#FFC44F;" d="M444.125,42.756h-9.086V33.67c0-4.428-3.589-8.017-8.017-8.017c-4.427,0-8.017,3.588-8.017,8.017
		v9.086h-9.086c-4.427,0-8.017,3.588-8.017,8.017s3.589,8.017,8.017,8.017h9.086v9.086c0,4.428,3.589,8.017,8.017,8.017
		c4.427,0,8.017-3.588,8.017-8.017v-9.086h9.086c4.427,0,8.017-3.588,8.017-8.017S448.552,42.756,444.125,42.756z"/>
	<path style="fill:#FFC44F;" d="M170.489,17.102h-9.086V8.017c0-4.428-3.589-8.017-8.017-8.017c-4.427,0-8.017,3.588-8.017,8.017
		v9.086h-9.086c-4.427,0-8.017,3.588-8.017,8.017s3.589,8.017,8.017,8.017h9.086v9.086c0,4.428,3.589,8.017,8.017,8.017
		c4.427,0,8.017-3.588,8.017-8.017v-9.086h9.086c4.427,0,8.017-3.588,8.017-8.017S174.916,17.102,170.489,17.102z"/>
</g>
<g>
</g>
<g>
</g>
<g>
</g>
<g>
</g>
<g>
</g>
<g>
</g>
<g>
</g>
<g>
</g>
<g>
</g>
<g>
</g>
<g>
</g>
<g>
</g>
<g>
</g>
<g>
</g>
<g>
</g>
</svg>
